<svg width="378" height="60" viewBox="0 0 378 60" fill="none" xmlns="http://www.w3.org/2000/svg">
<g clip-path="url(#clip0_17539_1020)">
<path d="M0 0V58.9503H12.2002V51.6825C14.4687 54.5886 16.8165 56.4468 20.526 57.8199C24.2355 59.2734 28.6869 60 33.9627 60C41.7939 60 47.9763 58.3044 52.5102 54.9933C57.0441 51.6825 59.2698 46.1913 59.2698 38.6004C59.2698 31.0095 57.0441 25.5183 52.5102 22.2074C47.9763 18.8965 41.7939 17.2006 33.9627 17.2006C28.8518 17.2006 24.4828 17.8466 20.9382 19.2195C17.3111 20.5923 15.0567 21.842 12.6124 24.5749V0H0ZM46.575 40.5384C46.575 44.6568 45.1737 47.5641 42.2886 49.179C39.4032 50.8749 35.9064 51.6825 30.4656 51.6825C24.7778 51.6825 21.5689 50.8749 18.6837 49.179C15.7985 47.5641 14.3147 44.6568 14.3147 40.5384V36.6624C14.3147 32.5437 15.7161 29.7175 18.6013 28.0216C21.4864 26.3258 24.6953 25.5183 30.4656 25.5183C35.9064 25.5183 39.4032 26.3258 42.2886 28.0216C45.1737 29.7175 46.575 32.5437 46.575 36.6624V40.5384Z" fill="#1D223B"/>
<path d="M64.9629 38.6005C64.9629 46.2721 67.4358 51.7633 72.3819 55.0741C77.2455 58.3852 84.2523 60.0001 93.2376 60.0001C100.739 60.0001 106.839 58.9504 111.538 56.77C116.236 54.5896 119.369 51.0367 120.935 46.1107H108.57C107.581 48.2908 105.85 49.8253 103.459 50.7136C100.986 51.6019 97.6065 52.0864 93.2376 52.0864C87.9618 52.0864 84.0051 51.1981 81.4497 49.3408C78.8118 47.5642 77.4927 44.6569 77.4927 40.7002V39.7309H121.1V37.3891C121.1 30.0406 118.627 24.7916 113.681 21.7229C108.735 18.735 101.893 17.2007 93.2376 17.2007C84.2523 17.2007 77.2455 18.8965 72.3819 22.2882C67.4358 25.6798 64.9629 31.0903 64.9629 38.6005ZM93.2376 24.7916C98.4309 24.7916 102.223 25.4376 104.778 26.7296C107.334 28.1024 108.653 30.3637 108.9 33.5938H77.5752C77.9049 30.3637 79.4712 28.1024 82.3563 26.7296C85.1592 25.4376 88.7862 24.7916 93.2376 24.7916Z" fill="#1D223B"/>
<path d="M157.088 1.04248L137.886 58.8735H126.488L145.772 1.04248H157.088Z" fill="#1D223B"/>
<path d="M177.846 46.1106C178.588 51.2787 181.143 54.8319 185.594 56.8506C190.046 58.8696 196.64 59.8386 205.379 59.8386C214.199 59.8386 220.876 58.7889 225.41 56.7699C229.944 54.7512 232.169 51.2787 232.169 46.5141C232.169 41.6691 230.026 38.5197 225.74 36.9852C221.453 35.451 216.754 34.5627 211.726 34.2396C206.615 33.9975 201.916 33.6744 197.63 33.432C193.343 33.1899 191.2 31.8978 191.2 29.4752C191.2 27.6179 192.354 26.3258 194.744 25.599C197.135 24.8722 200.432 24.4685 204.719 24.4685C208.593 24.4685 211.726 24.8722 214.117 25.599C216.507 26.3258 217.991 27.7794 218.486 29.9597H231.098C230.521 25.5183 228.13 22.2074 223.926 20.1885C219.64 18.1697 213.21 17.1199 204.719 17.1199C196.723 17.1199 190.376 18.1697 185.677 20.1885C180.978 22.2074 178.588 25.4375 178.588 29.879C178.588 34.8048 180.731 37.9542 185.018 39.408C189.304 40.8615 194.002 41.7498 199.196 41.9919C204.307 42.2343 209.005 42.5574 213.292 42.7995C217.579 43.1226 219.722 44.5761 219.722 47.241C219.722 49.0983 218.65 50.3904 216.425 51.198C214.199 52.0056 210.489 52.4094 205.379 52.4094C200.927 52.4094 197.465 52.0056 195.074 51.1173C192.601 50.229 191.117 48.6138 190.541 46.1106H177.846Z" fill="#1D223B"/>
<path d="M237.49 38.6005C237.49 46.7566 240.046 52.3285 245.157 55.3972C250.185 58.4659 257.522 60.0001 267.167 60.0001C276.811 60.0001 284.148 58.4659 289.259 55.3972C294.287 52.3285 296.843 46.7566 296.843 38.6005C296.843 30.6058 294.287 25.0338 289.259 21.8844C284.148 18.735 276.811 17.2007 267.167 17.2007C257.522 17.2007 250.185 18.735 245.157 21.8844C240.046 25.0338 237.49 30.6058 237.49 38.6005ZM284.148 40.3771C284.148 44.6569 282.746 47.5642 279.944 49.1791C277.058 50.875 272.854 51.6826 267.167 51.6826C261.561 51.6826 257.357 50.875 254.472 49.1791C251.586 47.5642 250.185 44.6569 250.185 40.4578V36.8239C250.185 32.6248 251.586 29.7175 254.472 28.0217C257.357 26.3259 261.561 25.5183 267.167 25.5183C272.854 25.5183 277.058 26.3259 279.944 28.0217C282.746 29.7175 284.148 32.6248 284.148 36.8239V40.3771Z" fill="#1D223B"/>
<path d="M179.182 1.04272L159.979 58.8738H148.582L167.865 1.04272H179.182Z" fill="#1D223B"/>
<path d="M301.057 18.2504V25.5182H307.729V42.8802V58.9503H319.852V25.5182H339.718V18.2504H319.852V12.6943C319.852 10.6755 320.344 9.22188 321.253 8.33361C322.159 7.44531 323.725 7.04154 325.951 7.04154H339.718V0H323.557C317.374 0 313.171 1.29207 311.026 3.79545C308.8 6.2988 307.729 9.69048 307.729 13.8089V18.2504H301.057Z" fill="#1D223B"/>
<path d="M347.778 45.7874C347.778 50.471 348.933 53.8628 351.159 55.8815C353.385 57.9005 356.928 58.9502 361.71 58.9502H377.979V51.6506H367.014C364.377 51.6506 362.481 51.1661 361.41 50.1164C360.255 49.1471 359.676 47.6936 359.676 45.7556V25.5182H377.979V18.2503H359.676V5.81421H347.778V18.2503H341.844V25.5182H347.778V45.7874Z" fill="#1D223B"/>
</g>
<defs>
<clipPath id="clip0_17539_1020">
<rect width="378" height="60" fill="white"/>
</clipPath>
</defs>
</svg>
