<svg width="378" height="60" viewBox="0 0 378 60" fill="none" xmlns="http://www.w3.org/2000/svg">
<g clip-path="url(#clip0_17539_1116)">
<path d="M137.57 58.8935H124.354L144.179 0.34375H157.395L137.57 58.8935Z" fill="white"/>
<path d="M159.664 58.8935H146.447L166.272 0.34375H179.489L159.664 58.8935Z" fill="white"/>
<path d="M266.361 17.2014C244.716 17.2014 236.895 23.628 236.895 38.4836C236.895 53.3388 244.716 59.7656 266.361 59.7656C288.005 59.7656 295.827 53.3388 295.827 38.4836C295.827 23.628 288.037 17.2014 266.361 17.2014ZM266.297 51.4335C253.91 51.4335 249.409 47.4936 249.409 38.419C249.409 29.3441 253.878 25.4042 266.297 25.4042C278.683 25.4042 283.153 29.3441 283.153 38.419C283.153 47.4936 278.683 51.4335 266.297 51.4335Z" fill="white"/>
<path d="M34.4295 17.2026C23.7031 17.2026 17.0309 19.6247 13.1999 24.372V0.377197H0.685547V58.9271H13.1999V52.6296C16.9989 57.3771 23.735 59.7989 34.4295 59.7989C52.946 59.7989 59.65 51.4668 59.65 38.517C59.65 25.5669 52.946 17.2026 34.4295 17.2026ZM30.088 51.4349C17.5736 51.4349 13.0403 47.4949 13.0403 38.42C13.0403 29.3453 17.5736 25.4054 30.088 25.4054C42.6022 25.4054 47.1355 29.3453 47.1355 38.42C47.1355 47.4949 42.6022 51.4349 30.088 51.4349Z" fill="white"/>
<path d="M121.175 40.3243C121.175 39.743 121.207 39.1295 121.207 38.4836C121.207 23.628 112.683 17.2014 93.3053 17.2014C73.895 17.2014 65.3711 23.628 65.3711 38.4836C65.3711 53.3388 73.895 59.7656 93.3053 59.7656C108.916 59.7656 117.472 55.5997 120.218 46.2018H106.969C104.83 49.7865 100.552 51.4011 93.2733 51.4011C82.8021 51.4011 78.5561 48.0105 77.9496 40.2919H121.175V40.3243ZM93.3053 25.3719C102.148 25.3719 106.586 27.794 108.086 33.1873H78.5241C80.0244 27.794 84.4622 25.3719 93.3053 25.3719Z" fill="white"/>
<path d="M364.563 51.9501C361.594 51.9501 359.007 50.5614 359.007 46.2339V25.404H376.408V18.2669H358.976V0.214355H346.461V18.2669H319.358V12.9061C319.358 8.57863 321.976 7.18996 324.945 7.18996H338.353V0.214355H322.008C311.728 0.214355 306.876 4.38033 306.876 13.4228V18.2669H299.916V25.404H306.876V58.9258H319.39V25.3717H346.526V45.685C346.526 54.7273 351.409 58.8935 361.66 58.8935H378.003V51.9501H364.563Z" fill="white"/>
<path d="M190.633 29.2795C190.633 25.9209 194.081 24.5 204.552 24.5C213.938 24.5 215.853 26.5991 216.556 29.6994H230.411C228.399 21.2059 221.089 17.2014 204.647 17.2014C183.513 17.2014 178.47 23.2728 178.47 29.8933C178.47 46.3954 218.822 37.7084 218.822 46.6541C218.822 50.0124 215.023 51.4335 204.552 51.4335C194.177 51.4335 190.984 49.3346 190.282 46.0405H177.416C179.14 56.1163 187.089 59.7656 204.201 59.7656C225.845 59.7656 231.496 53.888 231.496 46.3311C231.496 28.5045 190.633 38.5803 190.633 29.2795Z" fill="white"/>
</g>
<defs>
<clipPath id="clip0_17539_1116">
<rect width="378" height="60" fill="white"/>
</clipPath>
</defs>
</svg>
