<svg width="60" height="60" viewBox="0 0 60 60" fill="none" xmlns="http://www.w3.org/2000/svg">
<g clip-path="url(#clip0_17539_954)">
<path d="M28.9244 49.8761C24.2538 44.315 21.6941 37.2849 21.6956 30.0227C21.6971 22.7604 24.2597 15.7313 28.9326 10.1721L28.9244 10.1638L29.409 9.61443C32.3852 6.2436 36.0612 3.56291 40.1804 1.75956C36.9239 0.591638 33.4896 -0.00368023 30.0299 1.71169e-05C13.4454 1.71169e-05 4.87136e-07 13.4456 4.87136e-07 30.0283C-0.00104002 35.8066 1.66482 41.4628 4.7978 46.3182C7.93079 51.1735 12.3979 55.0221 17.6634 57.4022C21.9542 55.8092 25.8113 53.2314 28.9244 49.8761Z" fill="#85D888"/>
<path d="M42.3901 2.65283C38.1021 4.24523 34.2478 6.82193 31.1374 10.1756C35.809 15.7359 38.3695 22.766 38.368 30.0284C38.3665 37.2906 35.8032 44.3196 31.129 49.878L31.1374 49.8879L30.6526 50.4374C27.6744 53.8103 23.9955 56.4921 19.873 58.2956C27.1635 60.8622 35.1627 60.5205 42.2077 57.3416C49.2528 54.1626 54.8017 48.3908 57.7011 41.2262C60.6004 34.0614 60.6271 26.055 57.7756 18.8712C54.9241 11.6873 49.4137 5.87872 42.3901 2.65283Z" fill="#56A458"/>
</g>
<defs>
<clipPath id="clip0_17539_954">
<rect width="60" height="60" fill="white"/>
</clipPath>
</defs>
</svg>
