<svg width="53" height="60" viewBox="0 0 53 60" fill="none" xmlns="http://www.w3.org/2000/svg">
<g clip-path="url(#clip0_17539_1058)">
<mask id="mask0_17539_1058" style="mask-type:luminance" maskUnits="userSpaceOnUse" x="0" y="-1" width="53" height="61">
<path d="M52.4564 -0.746338H0V59.2537H52.4564V-0.746338Z" fill="white"/>
</mask>
<g mask="url(#mask0_17539_1058)">
<path d="M36.8579 17.6638L44.7504 9.84591L26.2322 -0.745605L7.71094 9.84591L15.6019 17.6638C18.2949 20.3535 21.9252 21.9197 25.7476 22.0409C26.0717 22.0499 26.3957 22.0499 26.7198 22.0409C30.5394 21.918 34.1669 20.352 36.8579 17.6638Z" fill="#994187"/>
<path d="M14.5871 18.7808L6.34938 10.6223L0 14.2538V44.2538L6.34938 47.8838L14.5917 39.7208C17.3115 37.0563 18.8934 33.4583 19.0103 29.6708C19.0103 29.5118 19.0103 29.3513 19.0103 29.1908C18.9793 25.2789 17.3895 21.5373 14.5871 18.7808Z" fill="#C961B3"/>
<path d="M15.6615 40.7808L7.70703 48.6602L26.2312 59.2533L44.7526 48.6602L36.7981 40.7808C34.1081 38.0865 30.4758 36.5195 26.6524 36.4037C26.3707 36.3957 26.0889 36.3957 25.8072 36.4037C21.9838 36.5195 18.3513 38.0865 15.6615 40.7808Z" fill="#994187"/>
<path d="M37.866 39.7208L46.1082 47.8838L52.4561 44.2538V14.2538L46.1082 10.6223L37.866 18.7853C35.1461 21.4499 33.5642 25.0479 33.4473 28.8353C33.4473 29.1143 33.4473 29.3918 33.4473 29.6708C33.5642 33.4583 35.1461 37.0563 37.866 39.7208Z" fill="#C961B3"/>
</g>
</g>
<defs>
<clipPath id="clip0_17539_1058">
<rect width="53" height="60" fill="white"/>
</clipPath>
</defs>
</svg>
