<svg width="53" height="60" viewBox="0 0 53 60" fill="none" xmlns="http://www.w3.org/2000/svg">
<g clip-path="url(#clip0_17539_1042)">
<path d="M26.2258 0.00299985L11.6582 14.9977V44.9993L26.2258 59.994L26.2318 59.997L26.2364 59.994L40.8038 44.9993V14.9977L26.2364 0.00299985L26.2318 0L26.2258 0.00299985Z" fill="#5BD5EF"/>
<path d="M10.1438 45.6042V44.9997V14.9982V14.3937L10.5678 13.9587L21.4991 2.7063L0 14.9997V44.9982L21.4991 57.2916L10.5678 46.0392L10.1438 45.6042Z" fill="#2FBEDD"/>
<path d="M52.4625 14.9997L30.9648 2.7063L41.8947 13.9587L42.3188 14.3937V14.9982V44.9997V45.6042L41.8947 46.0392L30.9648 57.2916L52.4625 44.9982V14.9997Z" fill="#2FBEDD"/>
</g>
<defs>
<clipPath id="clip0_17539_1042">
<rect width="53" height="60" fill="white"/>
</clipPath>
</defs>
</svg>
